<?xml version="1.0" encoding="utf-8"?>
<!-- Generator: Adobe Illustrator 19.1.0, SVG Export Plug-In . SVG Version: 6.00 Build 0)  -->
<svg version="1.1" id="Layer_1" xmlns="http://www.w3.org/2000/svg" xmlns:xlink="http://www.w3.org/1999/xlink" x="0px" y="0px"
	 viewBox="0 0 449.097 140.817" style="enable-background:new 0 0 449.097 140.817;" xml:space="preserve" fill="#ffffff">
<g>
	<path d="M64.304,2.8v67.504h7.7v1.5H47.502v-1.5h7.701V5.3c-8.4,20.701-16.701,41.502-25.001,62.204L8.9,5.7v64.604h7.7v1.5H0v-1.5
		h7.7V2.8H0V1.2c10,0,6.8,0,16.601,0l17.901,52.104L55.403,1.2h16.601v1.6H64.304z"/>
	<path d="M116.301,71.804v-1.488l7.401-0.012l-9.701-28.102H95.7l-9.701,28.102h7.4v1.5H76.799v-1.5h7.9
		C92.6,47.203,100.7,24.201,108.801,0l24.101,70.304h7.901v1.5H116.301z M104.8,15.501L96.2,40.702h17.301L104.8,15.501z"/>
	<path d="M135.697,36.502c0-17.001,9.301-35.202,24.202-35.202C169.6,1.3,176.3,10,176.3,21.701c0,3.2-2.1,5.7-4.6,5.7
		s-4.5-2.5-4.5-5.7c0-3.1,2-5.7,4.5-5.7c1.1,0,2.1,0.5,2.9,1.3C173,8.2,167.799,2.8,159.899,2.8c-8.701,0-15.101,8-15.101,18.901
		v29.602c0,10.501,6.701,19.001,15.101,19.001s15.201-8.5,15.201-19.001v-14h-15.601v-1.5h24.602c0,17.701-9,36.002-24.202,36.002
		C144.898,71.804,135.697,53.603,135.697,36.502z"/>
	<path d="M188.897,36.502c0-17.001,9.3-35.202,24.201-35.202C222.799,1.3,229.5,10,229.5,21.701c0,3.2-2.1,5.7-4.6,5.7
		s-4.5-2.5-4.5-5.7c0-3.1,2-5.7,4.5-5.7c1.1,0,2.1,0.5,2.9,1.3C226.2,8.2,220.999,2.8,213.099,2.8c-8.701,0-15.101,8-15.101,18.901
		v29.602c0,10.501,6.701,19.001,15.101,19.001s15.201-8.5,15.201-19.001v-14h-15.601v-1.5H237.3c0,17.701-9,36.002-24.202,36.002
		C198.098,71.804,188.897,53.603,188.897,36.502z"/>
	<path d="M242.098,71.804v-1.5h7.5V2.8h-7.5V1.2h24.001v1.6h-7.5v67.504h7.5v1.5H242.098z"/>
	<path d="M270.896,71.804v-1.591h7.601V2.8h-7.601V1.3h31.802c4.9,0,8.4,4.4,8.4,11.101h-1.2c-0.4-5.6-2.9-9.601-7.1-9.601h-15.201
		v33.002h15.501v1.5h-15.501v33.002h15.101c2.8,0,4.9-1.4,6.1-4.2c-0.6,0.5-1.4,0.8-2.2,0.8c-2.5,0-4.5-2.6-4.5-5.7
		c0-3.2,2-5.7,4.5-5.7c2.5,0,4.5,2.5,4.5,5.7c0,6.1-3.5,10.601-8.4,10.601H270.896z"/>
</g>
<g>
	<path d="M0,105.515c0-17.001,9.3-35.302,24.101-35.302c9.601,0,16.301,8.5,16.301,20.501c0,3.1-2.101,5.7-4.5,5.7
		c-2.501,0-4.501-2.5-4.501-5.7c0-3.1,2-5.7,4.501-5.7c1.1,0,2.1,0.5,2.899,1.3c-1.7-9.201-6.8-14.501-14.701-14.501
		c-8.4,0-15.001,8.201-15.001,18.901v29.602c0,10.401,6.801,19.001,15.001,19.001c9.401,0,15.101-8.301,15.101-19.501h1.2
		c0.1,11.901-6.301,21.001-16.301,21.001C9.3,140.817,0,122.516,0,105.515z"/>
	<path d="M67.746,70.309l23.657,69.009h7.9v1.5H74.802v-1.5h7.4l-9.7-28.102H54.201L44.5,139.317h7.4v1.5H35.3v-1.5h7.9
		c7.76-22.69,23.669-69.012,23.669-69.012 M63.301,84.514l-8.6,25.201h17.301L63.301,84.514z"/>
	<path d="M104.099,140.817v-1.5h7.601V71.813h-7.601v-1.509l16.701,0.009v69.004H135.9c2.8,0,4.9-1.4,6.101-4.2
		c-0.601,0.5-1.4,0.8-2.2,0.8c-2.5,0-4.5-2.6-4.5-5.7c0-3.2,2-5.7,4.5-5.7s4.5,2.5,4.5,5.7c0,6.2-3.5,10.601-8.4,10.601H104.099z"/>
	<path d="M188.601,140.817v-1.5h7.4l-9.7-28.102H168l-9.701,28.102h7.4v1.5h-16.601v-1.5h7.9
		c7.9-23.102,16.001-46.103,24.102-70.304l24.102,70.304h7.9v1.5H188.601z M177.1,84.514l-8.6,25.201h17.301L177.1,84.514z"/>
	<path d="M249.499,140.817v-1.5h7.2l-29.901-65.404v65.404h7.7v1.5h-16.601v-1.5h7.7V71.813h-7.7v-1.6c5.5,0,11,0,16.501,0
		L265,137.117V71.813l-7.7-0.009v-1.591H273.9v1.591l-7.7,0.009v67.504h7.7v1.5H249.499z"/>
	<path d="M278.695,140.817v-1.5h7.7V71.813h-7.7v-1.6h24.001c15.001,0,24.202,18.301,24.202,35.302
		c0,17.101-9.201,35.302-24.202,35.302H278.695z M302.797,71.813h-7.4v67.504c2.5,0,4.9,0,7.3,0c8.4,0,15.201-8.4,15.201-19.001
		c0-9.8-0.1-19.701-0.1-29.602C317.798,79.414,311.697,71.813,302.797,71.813z"/>
	<path d="M380.098,88.314c0,7.601-3.8,14.301-9.5,16.901c6.5,1.8,11,8.9,11.2,17.301c0.101,3.4,0.101,6.801,0.101,10.101
		c0,3.8,2.5,6.701,5.5,6.701c2.7,0,5.101-1.6,6.4-4.3c-0.8,0.6-1.6,0.9-2.4,0.9c-2.5,0-4.6-2.6-4.6-5.7c0-3.2,2.1-5.7,4.6-5.7
		c2.4,0,4.501,2.7,4.501,5.7c0,6.2-3.601,10.601-8.501,10.601c-7.9,0-14.701-8.101-14.701-18.001v-9.901c0-3.6-2.3-6.6-5.2-6.6
		h-19.001v33.002h7.7v1.5h-24.501v-1.5h7.7V71.813h-7.7v-1.5c11.4,0,22.701-0.1,34.102-0.1
		C373.697,70.313,380.098,78.414,380.098,88.314z M370.997,78.414c0-3.7-2.3-6.601-5.3-6.601c-5.801,0-11.501,0-17.201,0v33.002
		h17.201c2.7,0,5.3-3.3,5.3-6.701V78.414z"/>
	<path d="M400.694,105.515c0-17.001,9.301-35.302,24.201-35.302c15.001,0,24.201,18.301,24.201,35.302
		c0,17.101-9.2,35.302-24.201,35.302C409.995,140.817,400.694,122.616,400.694,105.515z M440.097,90.714
		c0-10.401-6.801-18.901-15.201-18.901c-8.301,0-15.101,8.5-15.101,18.901v29.602c0,10.501,6.7,19.001,15.101,19.001
		s15.201-8.5,15.201-19.001V90.714z"/>
</g>
</svg>
